<?xml version="1.0" encoding="UTF-8"?>
<svg width="10mm" height="10mm" version="1.1" viewBox="0 0 10 10" xmlns="http://www.w3.org/2000/svg">
<path d="m2.5472 5.2399q-0.78204 0-1.2353-0.50655-0.45323-0.50655-0.45323-1.4663 0-0.95978 0.45323-1.4663 0.45323-0.50655 1.2353-0.50655 0.76427 0 1.2264 0.50655 0.46212 0.49766 0.46212 1.4663 0 0.96867-0.46212 1.4752-0.46212 0.49766-1.2264 0.49766zm0-0.63097q0.43546 0 0.65763-0.32881 0.22217-0.32881 0.22217-1.0131t-0.22217-1.0131q-0.22217-0.32881-0.65763-0.32881-0.8798 0-0.8798 1.3419 0 1.3419 0.8798 1.3419zm4.9055 4.0968q-0.78204 0-1.2353-0.50655-0.45323-0.50655-0.45323-1.4663 0-0.95978 0.45323-1.4663 0.45323-0.50655 1.2353-0.50655 0.76427 0 1.2264 0.50655 0.46212 0.49766 0.46212 1.4663t-0.46212 1.4752q-0.46212 0.49766-1.2264 0.49766zm0-0.63097q0.43546 0 0.65763-0.32881 0.22217-0.32881 0.22217-1.0131 0-0.68429-0.22217-1.0131-0.22217-0.32881-0.65763-0.32881-0.8798 0-0.8798 1.3419t0.8798 1.3419zm-4.8878 0.52432 4.0702-7.1984h0.79982l-4.0702 7.1984z" fill="none" stroke="#00b06a" stroke-linecap="round" stroke-width=".72" aria-label="%"/>
</svg>
